<svg xmlns="http://www.w3.org/2000/svg">
  <defs>
    <style>.logoicon { display: none; }.logoicon:target { display: inline; }</style>
  </defs>
  <svg viewBox="0 0 152 40">
    <g id="src-1" class="logoicon">
      <path fill-rule="evenodd" clip-rule="evenodd" d="M146.397 3.38147C146.397 4.5223 145.457 5.44509 144.296 5.44509C143.135 5.44509 142.191 4.5223 142.191 3.38147C142.191 2.24452 143.135 1.32173 144.296 1.32173C145.457 1.32173 146.397 2.24452 146.397 3.38147ZM152 3.38147C152 4.5223 151.06 5.44509 149.899 5.44509C148.738 5.44509 147.798 4.5223 147.798 3.38147C147.798 2.24452 148.738 1.32173 149.899 1.32173C151.06 1.32173 152 2.24452 152 3.38147ZM96.6397 14.2875C96.9781 13.9605 97.2378 13.575 97.4267 13.1272C97.6155 12.6795 97.706 12.1889 97.706 11.6593C97.706 11.1259 97.6195 10.6353 97.4385 10.1798C97.2575 9.7242 97.0017 9.33094 96.6751 8.99609C96.3446 8.66123 95.9551 8.40036 95.5066 8.21347C95.0541 8.02268 94.5622 7.92923 94.0193 7.92923C93.496 7.92923 93.0159 8.02657 92.5831 8.22515C92.1464 8.41983 91.7726 8.6846 91.4578 9.01945C91.143 9.3543 90.8952 9.74756 90.7181 10.2031C90.5371 10.6587 90.4466 11.1415 90.4466 11.6593C90.4466 12.1733 90.5371 12.6561 90.7181 13.1039C90.8952 13.5516 91.147 13.9371 91.4696 14.2642C91.7923 14.5912 92.17 14.8482 92.6067 15.0351C93.0395 15.2259 93.5117 15.3193 94.0193 15.3193C94.5308 15.3193 95.0108 15.2298 95.4593 15.0468C95.9079 14.8677 96.3013 14.6107 96.6397 14.2875ZM148.152 12.8196V8.36532C148.152 8.03046 148.423 7.75402 148.758 7.75402H150.694C151.028 7.75402 151.3 8.03046 151.3 8.36532V15.3894C151.3 15.7282 151.028 16.0046 150.694 16.0046H99.3271C99.1618 16.2032 98.9926 16.3979 98.8038 16.577C98.1782 17.1844 97.4424 17.6594 96.624 17.9904C95.8056 18.3213 94.9282 18.4927 94.0193 18.4927C93.0828 18.4927 92.1897 18.3097 91.3634 17.9476C90.5686 17.601 89.8564 17.1143 89.2544 16.503C88.6367 15.88 88.1527 15.1363 87.8143 14.2953C87.4838 13.4699 87.3147 12.5821 87.3147 11.6593C87.3147 11.5577 87.3212 11.4603 87.3278 11.3625C87.3301 11.3292 87.3323 11.2958 87.3343 11.2622C86.6379 11.3634 86.1146 11.6554 85.7723 12.1344C85.5165 12.4848 85.3395 12.917 85.2411 13.4309C85.1467 13.9488 85.0955 14.5017 85.0955 15.0935V17.893C85.0955 18.2318 84.824 18.5043 84.4896 18.5043H82.5537C82.2193 18.5043 81.9478 18.2318 81.9478 17.893V15.0468C81.9478 13.8631 82.0855 12.843 82.3531 11.9786C82.6246 11.1142 83.0062 10.3238 83.6122 9.7242C84.8476 8.50159 86.0792 8.22904 86.4215 8.15506C86.7677 8.07719 87.0904 8.04215 87.3894 8.04215H88.2944C88.5501 7.60216 88.8492 7.19723 89.1915 6.83122C89.7895 6.20046 90.4978 5.69428 91.3004 5.33218C92.1385 4.9506 93.0553 4.75592 94.0193 4.75592C94.9714 4.75592 95.8764 4.93502 96.7066 5.28545C97.5368 5.63588 98.2687 6.13037 98.8864 6.75335C99.5159 7.39191 100.008 8.14727 100.346 8.99998C100.673 9.82932 100.842 10.7249 100.842 11.6593C100.842 12.0526 100.803 12.442 100.74 12.8196H148.152Z" fill="#12121B"/>
      <path fill-rule="evenodd" clip-rule="evenodd" d="M90.1053 37.7288V25.3995H94.535C94.8704 25.3995 95.1394 25.13 95.1394 24.7979V23.0712C95.1394 22.7391 94.8704 22.4696 94.535 22.4696H82.5522C82.2208 22.4696 81.9478 22.7391 81.9478 23.0712V24.7979C81.9478 25.13 82.2208 25.3995 82.5522 25.3995H86.9819V37.7288C86.9819 38.0609 87.2549 38.3304 87.5863 38.3304H89.5009C89.8363 38.3304 90.1053 38.0609 90.1053 37.7288ZM104.244 31.8884H99.8265L102.037 25.8918L104.244 31.8884ZM98.7892 34.709H105.282L106.467 37.9359C106.553 38.1742 106.779 38.3304 107.036 38.3304H109.111C109.536 38.3304 109.828 37.9085 109.676 37.5139L104.053 22.8563C103.964 22.6219 103.741 22.4696 103.488 22.4696H100.719C100.466 22.4696 100.24 22.6219 100.15 22.8563L94.4843 37.5139C94.3322 37.9085 94.6286 38.3304 95.0536 38.3304H97.0345C97.2919 38.3304 97.518 38.1742 97.6077 37.9359L98.7892 34.709ZM147.695 37.7288V27.2122L143.367 37.9593C143.277 38.1859 143.063 38.3304 142.821 38.3304H141.09C140.852 38.3304 140.633 38.1859 140.544 37.9593L136.219 27.302V37.7288C136.219 38.0609 135.954 38.3304 135.627 38.3304H133.915C133.587 38.3304 133.322 38.0609 133.322 37.7288V23.0712C133.322 22.7391 133.587 22.4696 133.915 22.4696H136.921C137.159 22.4696 137.374 22.6141 137.467 22.8407L141.99 33.9238L146.405 22.8446C146.494 22.618 146.709 22.4696 146.95 22.4696H150.086C150.413 22.4696 150.678 22.7391 150.678 23.0712V37.7288C150.678 38.0609 150.413 38.3304 150.086 38.3304H148.284C147.96 38.3304 147.695 38.0609 147.695 37.7288ZM126.175 27.2122V37.7288C126.175 38.0609 126.436 38.3304 126.763 38.3304H128.565C128.892 38.3304 129.158 38.0609 129.158 37.7288V23.0712C129.158 22.7391 128.892 22.4696 128.565 22.4696H125.43C125.188 22.4696 124.974 22.618 124.884 22.8446L120.47 33.9238L115.946 22.8407C115.853 22.6141 115.638 22.4696 115.401 22.4696H112.39C112.067 22.4696 111.801 22.7391 111.801 23.0712V37.7288C111.801 38.0609 112.067 38.3304 112.39 38.3304H114.106C114.434 38.3304 114.699 38.0609 114.699 37.7288V27.302L119.023 37.9593C119.113 38.1859 119.331 38.3304 119.569 38.3304H121.3C121.542 38.3304 121.757 38.1859 121.846 37.9593L126.175 27.2122Z" fill="#12121B"/>
      <path fill-rule="evenodd" clip-rule="evenodd" d="M47.4192 8.19409L41.7508 11.2894L42.2935 13.1794C42.3013 13.2185 42.313 13.2538 42.3208 13.2929L42.5511 14.236L48.8207 10.8159C49.7576 10.3228 52.6035 8.82411 55.063 8.82411C56.1795 8.82411 57.0656 9.12542 57.7761 9.73978L60.8797 12.8664C57.6551 13.6725 53.8723 17.1199 49.2033 21.3774L45.1394 24.8484L45.928 28.0767L51.163 23.604C55.4494 19.6987 59.4977 16.0047 61.9455 15.6799C61.9806 15.6643 62.1367 15.6329 62.4178 15.5821C62.695 15.5273 62.8433 15.5038 62.859 15.5116L62.8668 15.5273C62.9019 15.629 62.9331 15.7308 62.9566 15.8325C62.9878 15.8443 63.0151 15.856 63.0385 15.8677C63.4211 16.443 64.1511 16.6738 64.7992 16.4273C65.4745 16.169 65.8649 15.4529 65.7205 14.7408C65.7127 14.7095 65.7049 14.6781 65.6971 14.6429C65.6893 14.6234 65.6814 14.5999 65.6775 14.5764L65.6502 14.4981C65.2872 13.1872 64.2487 12.029 63.7373 11.5242C63.6553 11.4381 63.5851 11.3755 63.5343 11.3285L59.8413 7.61103C59.8218 7.58756 59.7983 7.56799 59.7749 7.54842C58.514 6.42144 56.929 5.85404 55.063 5.85013C51.8696 5.85404 48.5357 7.60712 47.4192 8.19409ZM6.26482 7.54451C6.2414 7.56408 6.22188 7.58756 6.19846 7.60712L2.54445 11.2855C1.71684 12.1307 0.389525 13.6881 0.174814 15.0538C0.163102 15.1008 0.15139 15.1516 0.139678 15.1986C0.131871 15.269 0.127967 15.3434 0.127967 15.4138C0.127967 16.1104 0.600333 16.7325 1.2757 16.8852C1.95107 17.0378 2.63034 16.7208 2.93093 16.0947C2.94655 16.0634 2.97387 16.0243 3.00901 15.9812C3.02072 15.9186 3.03243 15.856 3.04805 15.7895C3.2042 15.6877 3.57116 15.6408 3.90299 15.6603C3.94593 15.6643 3.99278 15.6682 4.03963 15.676C6.47563 15.9421 10.6879 19.7887 14.7596 23.5023C14.783 23.5218 14.8025 23.5414 14.826 23.557L20.1938 27.9319L20.9941 24.7584L16.7271 21.2796C12.2689 17.2139 8.37681 13.6646 5.15613 12.8625L8.26359 9.73978C8.94677 9.14889 9.80952 8.87498 10.9846 8.87498C14.2989 8.87498 17.9959 11.0272 21.0058 12.7803L23.6604 14.2281L23.9063 13.2577L24.4568 11.2816L22.458 10.1898C19.1788 8.28018 15.0992 5.901 10.9846 5.901C9.0795 5.901 7.49063 6.45666 6.26482 7.54451ZM38.7097 12.9446C38.4833 13.0385 38.1476 13.1677 37.765 13.3086L38.0617 14.3534L38.5145 16.2004C39.2172 15.9421 39.7716 15.723 39.8965 15.6721C39.9473 15.6486 39.998 15.6251 40.0527 15.5977L41.2589 14.9403L40.9271 13.5903L40.4704 11.9859L38.7097 12.9446ZM25.4054 13.6255L25.058 14.9951L26.2682 15.6564C26.2955 15.6721 26.3228 15.6838 26.354 15.6995C26.8537 15.9303 27.3261 16.1338 27.7829 16.3099L28.2669 14.3886L28.5402 13.4142C28.2513 13.2968 27.9546 13.1677 27.6462 13.0229L25.8465 12.0407L25.4054 13.6255ZM35.3524 14.099C35.2392 14.1303 35.1338 14.1538 35.0362 14.1734C34.7044 14.2438 34.3804 14.2986 34.0563 14.3338C32.6783 14.4942 31.351 14.3573 29.8831 13.9033L29.6333 14.7877L29.1336 16.7717C31.187 17.3899 33.1077 17.5269 35.0987 17.1865C35.2782 17.1552 35.4578 17.1199 35.6335 17.0847C35.9341 17.0221 36.2737 16.936 36.6329 16.8304C36.7695 16.7873 36.9062 16.7443 37.0467 16.7012L36.5743 14.7603L36.305 13.8212C35.9653 13.9307 35.6374 14.0286 35.3524 14.099ZM21.6109 28.6128L21.5055 29.0041L24.0195 31.0546L24.4802 29.3719L24.8511 27.9006L22.3136 25.8345L21.6109 28.6128ZM41.3995 28.0415L42.1764 31.2189C42.3481 31.0898 42.5277 30.9607 42.7034 30.8276C42.7307 30.8081 42.7541 30.7885 42.7775 30.7689L44.7139 29.1137L43.9253 25.8853L41.3995 28.0415ZM25.8544 29.7359L25.2297 32.0368L25.7568 32.4672C25.8075 32.5103 25.8622 32.5494 25.9168 32.5846C28.6105 34.236 30.9372 35.0382 33.0179 35.0421C33.0218 35.0421 33.0218 35.0382 33.0218 35.0382C33.0374 35.0382 33.0531 35.0382 33.0687 35.0382C33.0687 35.0382 33.0726 35.0382 33.0765 35.0382C33.0921 35.0382 33.1077 35.0382 33.1233 35.0382C33.1272 35.0382 33.1272 35.0382 33.1311 35.0382C35.368 35.0068 37.9016 34.0481 40.8139 32.1464L40.0644 29.0745C37.398 30.9528 35.1377 31.9546 33.3341 32.0603C33.3302 32.0603 33.3302 32.0603 33.3263 32.0603C33.3146 32.0603 33.3029 32.0603 33.2912 32.0603C33.2873 32.0603 33.2795 32.0603 33.2756 32.0642C33.2678 32.0642 33.26 32.0642 33.2482 32.0642C33.2404 32.0642 33.2326 32.0642 33.2248 32.0642C33.217 32.0642 33.2131 32.0642 33.2053 32.0642C33.1936 32.0642 33.1858 32.0642 33.1741 32.0681C33.1702 32.0681 33.1663 32.0681 33.1585 32.0681C33.1467 32.0681 33.135 32.0681 33.1233 32.0681C33.1194 32.0681 33.1155 32.0681 33.1116 32.0681C33.0999 32.0681 33.0843 32.0681 33.0726 32.0681C33.0687 32.0681 33.0687 32.0681 33.0648 32.0681C33.0531 32.0681 33.0374 32.0681 33.0218 32.0681H33.0179C31.5384 32.0681 29.6957 31.4068 27.5486 30.0998L26.0652 28.8906L25.8544 29.7359Z" fill="#169F9F"/>
      <path fill-rule="evenodd" clip-rule="evenodd" d="M25.8075 0C25.0775 0 24.4568 0.477401 24.2655 1.19742C24.0781 1.91352 24.3826 2.63745 25.015 2.99354C25.0423 3.0092 25.6709 3.38877 26.2213 4.234C26.7132 4.98924 27.2285 6.2884 26.9201 8.19018L25.4054 13.6255L21.6109 28.6128L20.022 34.4708C19.7409 35.6408 19.0343 36.4547 17.9842 36.8186C17.5821 36.9595 17.1605 37.026 16.731 37.026C15.6926 37.026 14.6035 36.6308 13.647 35.8795C10.8714 33.6999 9.55967 31.0311 6.9519 25.7171L4.40659 20.6574C3.24715 18.3017 2.75136 16.9712 3.05195 15.7738L0.174814 15.0538C-0.395149 17.3391 0.506641 19.4482 1.75197 21.984L4.02011 26.4723L4.29338 27.0241C7.01046 32.5651 8.50954 35.6173 11.82 38.2195C13.2957 39.3817 15.0173 39.9922 16.7037 40H16.7623C16.7701 40 16.774 40 16.7779 40C17.5196 39.9961 18.2536 39.8709 18.9562 39.6243C20.9511 38.9317 22.3877 37.3039 22.8913 35.2064L24.4763 29.3719L28.2669 14.3886L29.7933 8.91411C29.809 8.86715 29.8168 8.81628 29.8285 8.76932C30.2774 6.14361 29.6333 4.21444 28.9228 2.97006H31.1363C34.8996 2.97006 35.3446 4.67619 35.8677 6.67971L38.0617 14.3534L43.1328 35.1555C43.6403 37.296 45.073 38.9239 47.0679 39.6243C47.7901 39.8748 48.5435 40 49.3048 40C51.003 40 52.7324 39.3856 54.2197 38.2195C57.5185 35.629 58.6194 33.379 61.2857 27.9437L64.4478 21.6513C65.2091 20.1057 65.7517 18.7439 65.9352 17.4447C65.9352 17.4447 65.9352 17.4447 65.9352 17.4408C65.9352 17.4369 65.9352 17.4291 65.9391 17.4252C65.9391 17.4212 65.9391 17.4134 65.9391 17.4095C65.9391 17.4095 65.9391 17.4056 65.9391 17.4017C66.0679 16.4469 65.9977 15.5234 65.6775 14.5764C65.6736 14.5686 65.6697 14.5608 65.6658 14.549L62.8668 15.5273C63.2611 16.6582 62.98 17.9182 61.7971 20.3248L58.9356 26.0067L58.6272 26.6328C56.0311 31.9272 55.1567 33.7077 52.3888 35.8795C51.4363 36.6308 50.3471 37.0299 49.3087 37.0299C48.8754 37.0299 48.4498 36.9595 48.0477 36.8186C46.9976 36.4508 46.2949 35.6369 46.0177 34.459L40.9271 13.5903L38.7253 5.89709C38.1905 3.83487 37.195 0 31.1363 0H25.8075Z" fill="#169F9F"/>
    </g>
  </svg>
  <svg viewBox="0 0 152 40">
    <g id="src-2" class="logoicon">
      <path fill-rule="evenodd" clip-rule="evenodd" d="M146.397 3.38147C146.397 4.5223 145.457 5.44509 144.296 5.44509C143.135 5.44509 142.191 4.5223 142.191 3.38147C142.191 2.24452 143.135 1.32173 144.296 1.32173C145.457 1.32173 146.397 2.24452 146.397 3.38147ZM152 3.38147C152 4.5223 151.06 5.44509 149.899 5.44509C148.738 5.44509 147.798 4.5223 147.798 3.38147C147.798 2.24452 148.738 1.32173 149.899 1.32173C151.06 1.32173 152 2.24452 152 3.38147ZM96.6397 14.2875C96.9781 13.9605 97.2378 13.575 97.4267 13.1272C97.6155 12.6795 97.706 12.1889 97.706 11.6593C97.706 11.1259 97.6195 10.6353 97.4385 10.1798C97.2575 9.7242 97.0017 9.33094 96.6751 8.99609C96.3446 8.66123 95.9551 8.40036 95.5066 8.21347C95.0541 8.02268 94.5622 7.92923 94.0193 7.92923C93.496 7.92923 93.0159 8.02657 92.5831 8.22515C92.1464 8.41983 91.7726 8.6846 91.4578 9.01945C91.143 9.3543 90.8952 9.74756 90.7181 10.2031C90.5371 10.6587 90.4466 11.1415 90.4466 11.6593C90.4466 12.1733 90.5371 12.6561 90.7181 13.1039C90.8952 13.5516 91.147 13.9371 91.4696 14.2642C91.7923 14.5912 92.17 14.8482 92.6067 15.0351C93.0395 15.2259 93.5117 15.3193 94.0193 15.3193C94.5308 15.3193 95.0108 15.2298 95.4593 15.0468C95.9079 14.8677 96.3013 14.6107 96.6397 14.2875ZM148.152 12.8196V8.36532C148.152 8.03046 148.423 7.75402 148.758 7.75402H150.694C151.028 7.75402 151.3 8.03046 151.3 8.36532V15.3894C151.3 15.7282 151.028 16.0046 150.694 16.0046H99.3271C99.1618 16.2032 98.9926 16.3979 98.8038 16.577C98.1782 17.1844 97.4424 17.6594 96.624 17.9904C95.8056 18.3213 94.9282 18.4927 94.0193 18.4927C93.0828 18.4927 92.1897 18.3097 91.3634 17.9476C90.5686 17.601 89.8564 17.1143 89.2544 16.503C88.6367 15.88 88.1527 15.1363 87.8143 14.2953C87.4838 13.4699 87.3147 12.5821 87.3147 11.6593C87.3147 11.5577 87.3212 11.4603 87.3278 11.3625C87.3301 11.3292 87.3323 11.2958 87.3343 11.2622C86.6379 11.3634 86.1146 11.6554 85.7723 12.1344C85.5165 12.4848 85.3395 12.917 85.2411 13.4309C85.1467 13.9488 85.0955 14.5017 85.0955 15.0935V17.893C85.0955 18.2318 84.824 18.5043 84.4896 18.5043H82.5537C82.2193 18.5043 81.9478 18.2318 81.9478 17.893V15.0468C81.9478 13.8631 82.0855 12.843 82.3531 11.9786C82.6246 11.1142 83.0062 10.3238 83.6122 9.7242C84.8476 8.50159 86.0792 8.22904 86.4215 8.15506C86.7677 8.07719 87.0904 8.04215 87.3894 8.04215H88.2944C88.5501 7.60216 88.8492 7.19723 89.1915 6.83122C89.7895 6.20046 90.4978 5.69428 91.3004 5.33218C92.1385 4.9506 93.0553 4.75592 94.0193 4.75592C94.9714 4.75592 95.8764 4.93502 96.7066 5.28545C97.5368 5.63588 98.2687 6.13037 98.8864 6.75335C99.5159 7.39191 100.008 8.14727 100.346 8.99998C100.673 9.82932 100.842 10.7249 100.842 11.6593C100.842 12.0526 100.803 12.442 100.74 12.8196H148.152Z" fill="#169F9F"/>
      <path fill-rule="evenodd" clip-rule="evenodd" d="M90.1053 37.7288V25.3995H94.535C94.8704 25.3995 95.1394 25.13 95.1394 24.7979V23.0712C95.1394 22.7391 94.8704 22.4696 94.535 22.4696H82.5522C82.2208 22.4696 81.9478 22.7391 81.9478 23.0712V24.7979C81.9478 25.13 82.2208 25.3995 82.5522 25.3995H86.9819V37.7288C86.9819 38.0609 87.2549 38.3304 87.5863 38.3304H89.5009C89.8363 38.3304 90.1053 38.0609 90.1053 37.7288ZM104.244 31.8884H99.8265L102.037 25.8918L104.244 31.8884ZM98.7892 34.709H105.282L106.467 37.9359C106.553 38.1742 106.779 38.3304 107.036 38.3304H109.111C109.536 38.3304 109.828 37.9085 109.676 37.5139L104.053 22.8563C103.964 22.6219 103.741 22.4696 103.488 22.4696H100.719C100.466 22.4696 100.24 22.6219 100.15 22.8563L94.4843 37.5139C94.3322 37.9085 94.6286 38.3304 95.0536 38.3304H97.0345C97.2919 38.3304 97.518 38.1742 97.6077 37.9359L98.7892 34.709ZM147.695 37.7288V27.2122L143.367 37.9593C143.277 38.1859 143.063 38.3304 142.821 38.3304H141.09C140.852 38.3304 140.633 38.1859 140.544 37.9593L136.219 27.302V37.7288C136.219 38.0609 135.954 38.3304 135.627 38.3304H133.915C133.587 38.3304 133.322 38.0609 133.322 37.7288V23.0712C133.322 22.7391 133.587 22.4696 133.915 22.4696H136.921C137.159 22.4696 137.374 22.6141 137.467 22.8407L141.99 33.9238L146.405 22.8446C146.494 22.618 146.709 22.4696 146.95 22.4696H150.086C150.413 22.4696 150.678 22.7391 150.678 23.0712V37.7288C150.678 38.0609 150.413 38.3304 150.086 38.3304H148.284C147.96 38.3304 147.695 38.0609 147.695 37.7288ZM126.175 27.2122V37.7288C126.175 38.0609 126.436 38.3304 126.763 38.3304H128.565C128.892 38.3304 129.158 38.0609 129.158 37.7288V23.0712C129.158 22.7391 128.892 22.4696 128.565 22.4696H125.43C125.188 22.4696 124.974 22.618 124.884 22.8446L120.47 33.9238L115.946 22.8407C115.853 22.6141 115.638 22.4696 115.401 22.4696H112.39C112.067 22.4696 111.801 22.7391 111.801 23.0712V37.7288C111.801 38.0609 112.067 38.3304 112.39 38.3304H114.106C114.434 38.3304 114.699 38.0609 114.699 37.7288V27.302L119.023 37.9593C119.113 38.1859 119.331 38.3304 119.569 38.3304H121.3C121.542 38.3304 121.757 38.1859 121.846 37.9593L126.175 27.2122Z" fill="#169F9F"/>
      <path fill-rule="evenodd" clip-rule="evenodd" d="M47.4192 8.19409L41.7508 11.2894L42.2935 13.1794C42.3013 13.2185 42.313 13.2538 42.3208 13.2929L42.5511 14.236L48.8207 10.8159C49.7576 10.3228 52.6035 8.82411 55.063 8.82411C56.1795 8.82411 57.0656 9.12542 57.7761 9.73978L60.8797 12.8664C57.6551 13.6725 53.8723 17.1199 49.2033 21.3774L45.1394 24.8484L45.928 28.0767L51.163 23.604C55.4494 19.6987 59.4977 16.0047 61.9455 15.6799C61.9806 15.6643 62.1367 15.6329 62.4178 15.5821C62.695 15.5273 62.8433 15.5038 62.859 15.5116L62.8668 15.5273C62.9019 15.629 62.9331 15.7308 62.9566 15.8325C62.9878 15.8443 63.0151 15.856 63.0385 15.8677C63.4211 16.443 64.1511 16.6738 64.7992 16.4273C65.4745 16.169 65.8649 15.4529 65.7205 14.7408C65.7127 14.7095 65.7049 14.6781 65.6971 14.6429C65.6893 14.6234 65.6814 14.5999 65.6775 14.5764L65.6502 14.4981C65.2872 13.1872 64.2487 12.029 63.7373 11.5242C63.6553 11.4381 63.5851 11.3755 63.5343 11.3285L59.8413 7.61103C59.8218 7.58756 59.7983 7.56799 59.7749 7.54842C58.514 6.42144 56.929 5.85404 55.063 5.85013C51.8696 5.85404 48.5357 7.60712 47.4192 8.19409ZM6.26482 7.54451C6.2414 7.56408 6.22188 7.58756 6.19846 7.60712L2.54445 11.2855C1.71684 12.1307 0.389525 13.6881 0.174814 15.0538C0.163102 15.1008 0.15139 15.1516 0.139678 15.1986C0.131871 15.269 0.127967 15.3434 0.127967 15.4138C0.127967 16.1104 0.600333 16.7325 1.2757 16.8852C1.95107 17.0378 2.63034 16.7208 2.93093 16.0947C2.94655 16.0634 2.97387 16.0243 3.00901 15.9812C3.02072 15.9186 3.03243 15.856 3.04805 15.7895C3.2042 15.6877 3.57116 15.6408 3.90299 15.6603C3.94593 15.6643 3.99278 15.6682 4.03963 15.676C6.47563 15.9421 10.6879 19.7887 14.7596 23.5023C14.783 23.5218 14.8025 23.5414 14.826 23.557L20.1938 27.9319L20.9941 24.7584L16.7271 21.2796C12.2689 17.2139 8.37681 13.6646 5.15613 12.8625L8.26359 9.73978C8.94677 9.14889 9.80952 8.87498 10.9846 8.87498C14.2989 8.87498 17.9959 11.0272 21.0058 12.7803L23.6604 14.2281L23.9063 13.2577L24.4568 11.2816L22.458 10.1898C19.1788 8.28018 15.0992 5.901 10.9846 5.901C9.0795 5.901 7.49063 6.45666 6.26482 7.54451ZM38.7097 12.9446C38.4833 13.0385 38.1476 13.1677 37.765 13.3086L38.0617 14.3534L38.5145 16.2004C39.2172 15.9421 39.7716 15.723 39.8965 15.6721C39.9473 15.6486 39.998 15.6251 40.0527 15.5977L41.2589 14.9403L40.9271 13.5903L40.4704 11.9859L38.7097 12.9446ZM25.4054 13.6255L25.058 14.9951L26.2682 15.6564C26.2955 15.6721 26.3228 15.6838 26.354 15.6995C26.8537 15.9303 27.3261 16.1338 27.7829 16.3099L28.2669 14.3886L28.5402 13.4142C28.2513 13.2968 27.9546 13.1677 27.6462 13.0229L25.8465 12.0407L25.4054 13.6255ZM35.3524 14.099C35.2392 14.1303 35.1338 14.1538 35.0362 14.1734C34.7044 14.2438 34.3804 14.2986 34.0563 14.3338C32.6783 14.4942 31.351 14.3573 29.8831 13.9033L29.6333 14.7877L29.1336 16.7717C31.187 17.3899 33.1077 17.5269 35.0987 17.1865C35.2782 17.1552 35.4578 17.1199 35.6335 17.0847C35.9341 17.0221 36.2737 16.936 36.6329 16.8304C36.7695 16.7873 36.9062 16.7443 37.0467 16.7012L36.5743 14.7603L36.305 13.8212C35.9653 13.9307 35.6374 14.0286 35.3524 14.099ZM21.6109 28.6128L21.5055 29.0041L24.0195 31.0546L24.4802 29.3719L24.8511 27.9006L22.3136 25.8345L21.6109 28.6128ZM41.3995 28.0415L42.1764 31.2189C42.3481 31.0898 42.5277 30.9607 42.7034 30.8276C42.7307 30.8081 42.7541 30.7885 42.7775 30.7689L44.7139 29.1137L43.9253 25.8853L41.3995 28.0415ZM25.8544 29.7359L25.2297 32.0368L25.7568 32.4672C25.8075 32.5103 25.8622 32.5494 25.9168 32.5846C28.6105 34.236 30.9372 35.0382 33.0179 35.0421C33.0218 35.0421 33.0218 35.0382 33.0218 35.0382C33.0374 35.0382 33.0531 35.0382 33.0687 35.0382C33.0687 35.0382 33.0726 35.0382 33.0765 35.0382C33.0921 35.0382 33.1077 35.0382 33.1233 35.0382C33.1272 35.0382 33.1272 35.0382 33.1311 35.0382C35.368 35.0068 37.9016 34.0481 40.8139 32.1464L40.0644 29.0745C37.398 30.9528 35.1377 31.9546 33.3341 32.0603C33.3302 32.0603 33.3302 32.0603 33.3263 32.0603C33.3146 32.0603 33.3029 32.0603 33.2912 32.0603C33.2873 32.0603 33.2795 32.0603 33.2756 32.0642C33.2678 32.0642 33.26 32.0642 33.2482 32.0642C33.2404 32.0642 33.2326 32.0642 33.2248 32.0642C33.217 32.0642 33.2131 32.0642 33.2053 32.0642C33.1936 32.0642 33.1858 32.0642 33.1741 32.0681C33.1702 32.0681 33.1663 32.0681 33.1585 32.0681C33.1467 32.0681 33.135 32.0681 33.1233 32.0681C33.1194 32.0681 33.1155 32.0681 33.1116 32.0681C33.0999 32.0681 33.0843 32.0681 33.0726 32.0681C33.0687 32.0681 33.0687 32.0681 33.0648 32.0681C33.0531 32.0681 33.0374 32.0681 33.0218 32.0681H33.0179C31.5384 32.0681 29.6957 31.4068 27.5486 30.0998L26.0652 28.8906L25.8544 29.7359Z" fill="#169F9F"/>
      <path fill-rule="evenodd" clip-rule="evenodd" d="M25.8075 0C25.0775 0 24.4568 0.477401 24.2655 1.19742C24.0781 1.91352 24.3826 2.63745 25.015 2.99354C25.0423 3.0092 25.6709 3.38877 26.2213 4.234C26.7132 4.98924 27.2285 6.2884 26.9201 8.19018L25.4054 13.6255L21.6109 28.6128L20.022 34.4708C19.7409 35.6408 19.0343 36.4547 17.9842 36.8186C17.5821 36.9595 17.1605 37.026 16.731 37.026C15.6926 37.026 14.6035 36.6308 13.647 35.8795C10.8714 33.6999 9.55967 31.0311 6.9519 25.7171L4.40659 20.6574C3.24715 18.3017 2.75136 16.9712 3.05195 15.7738L0.174814 15.0538C-0.395149 17.3391 0.506641 19.4482 1.75197 21.984L4.02011 26.4723L4.29338 27.0241C7.01046 32.5651 8.50954 35.6173 11.82 38.2195C13.2957 39.3817 15.0173 39.9922 16.7037 40H16.7623C16.7701 40 16.774 40 16.7779 40C17.5196 39.9961 18.2536 39.8709 18.9562 39.6243C20.9511 38.9317 22.3877 37.3039 22.8913 35.2064L24.4763 29.3719L28.2669 14.3886L29.7933 8.91411C29.809 8.86715 29.8168 8.81628 29.8285 8.76932C30.2774 6.14361 29.6333 4.21444 28.9228 2.97006H31.1363C34.8996 2.97006 35.3446 4.67619 35.8677 6.67971L38.0617 14.3534L43.1328 35.1555C43.6403 37.296 45.073 38.9239 47.0679 39.6243C47.7901 39.8748 48.5435 40 49.3048 40C51.003 40 52.7324 39.3856 54.2197 38.2195C57.5185 35.629 58.6194 33.379 61.2857 27.9437L64.4478 21.6513C65.2091 20.1057 65.7517 18.7439 65.9352 17.4447C65.9352 17.4447 65.9352 17.4447 65.9352 17.4408C65.9352 17.4369 65.9352 17.4291 65.9391 17.4252C65.9391 17.4212 65.9391 17.4134 65.9391 17.4095C65.9391 17.4095 65.9391 17.4056 65.9391 17.4017C66.0679 16.4469 65.9977 15.5234 65.6775 14.5764C65.6736 14.5686 65.6697 14.5608 65.6658 14.549L62.8668 15.5273C63.2611 16.6582 62.98 17.9182 61.7971 20.3248L58.9356 26.0067L58.6272 26.6328C56.0311 31.9272 55.1567 33.7077 52.3888 35.8795C51.4363 36.6308 50.3471 37.0299 49.3087 37.0299C48.8754 37.0299 48.4498 36.9595 48.0477 36.8186C46.9976 36.4508 46.2949 35.6369 46.0177 34.459L40.9271 13.5903L38.7253 5.89709C38.1905 3.83487 37.195 0 31.1363 0H25.8075Z" fill="#169F9F"/>
    </g>
  </svg>
</svg>